<!DOCTYPE svg PUBLIC "-//W3C//DTD SVG 1.1//EN" "http://www.w3.org/Graphics/SVG/1.1/DTD/svg11.dtd">
<!-- Uploaded to: SVG Repo, www.svgrepo.com, Transformed by: SVG Repo Mixer Tools -->
<svg width="64px" height="64px" viewBox="0 0 64 64" xmlns="http://www.w3.org/2000/svg" fill="#000000">
<g id="SVGRepo_bgCarrier" stroke-width="0"/>
<g id="SVGRepo_tracerCarrier" stroke-linecap="round" stroke-linejoin="round"/>
<g id="SVGRepo_iconCarrier"> <path d="m17.89 14.58a14.13 14.13 0 0 1 8.11-6.41 17.42 17.42 0 0 1 12.91 1 19.11 19.11 0 0 1 5.3 4.93s6.2 1.11 10.6 4.72 6.6 7.36 6.48 10.85-4 7.73-5.74 9.24a34.24 34.24 0 0 1 -4.31 3l2.76 7.87a4 4 0 0 1 3 3c.49 2.47-2.56 3.7-4.28 2.62s-1.73-2.13-1.54-3a8.21 8.21 0 0 1 .73-1.94s-5.51-6.46-5.6-6.41-1.05.92-5.12 1.63a59.68 59.68 0 0 1 -6.29.83l-.27 3.27a2.48 2.48 0 0 1 1.17 2.68c-.25 2-3.55 2.32-4.93 1.27s-.87-2.81-.41-3.58a2.24 2.24 0 0 1 1.33-.95l-.71-2.65a32.75 32.75 0 0 1 -5.67-.87c-3.48-.8-5.27-1.29-5.27-1.29l-6.41 7.61a2.55 2.55 0 0 1 .89 2.78c-.37 2-3.57 2.37-5.24 1s-.31-3.64.34-4.19a3.46 3.46 0 0 1 1.45-.71l4-8.91a24.9 24.9 0 0 1 -7.89-6.38c-3.75-4.59-4.77-10-4.59-11.67s3.7-5.21 7.31-6.84a43.12 43.12 0 0 1 7.89-2.5z" fill="#1d1d1b"/> <path d="m16.47 16.28c.13.06.19.31.19.31a27.3 27.3 0 0 0 -1.54 5.7 14.76 14.76 0 0 0 .21 4.65c.12.16 3 4.23 10.76 5.43a33.72 33.72 0 0 0 16.58-1.67 10.21 10.21 0 0 0 3.67-2.7 4.5 4.5 0 0 0 .66-2.38 19.27 19.27 0 0 0 -.31-4.75 40.38 40.38 0 0 0 -1-4.16 18.82 18.82 0 0 1 6.17 2.44c2.28 1.66 6.56 4.83 6.38 9.12s-5.4 7.12-7.83 8.14-10.7 4.59-20.16 3.79-13.44-2.13-18.8-5.86-6.16-6.21-6.6-8.14c-.77-3.42 2.65-6.07 4.72-7.2a56.22 56.22 0 0 1 6.9-2.72z" fill="#8ec480"/> <path d="m17.12 26.23a15.62 15.62 0 0 1 1.2-8.35q2.82-5.86 8-7.77a14.59 14.59 0 0 1 11 .25 12.06 12.06 0 0 1 6.65 7.4 38.85 38.85 0 0 1 1 8.81 2 2 0 0 1 -.22.9s-5.11-4.56-5.33-4.56-.83.49-.65.7 5.23 4.07 5.1 4.29a6.23 6.23 0 0 1 -1.42.71s-3.85-3.42-4.13-3.42-.74.49-.61.58 4.07 3.15 3.91 3.3a4.8 4.8 0 0 1 -1.57.59 38.21 38.21 0 0 0 -3-2.69c-.25 0-.65.31-.52.5s2.75 2.43 2.56 2.53-1.75.47-1.75.47-1.94-1.79-2.07-1.79-.71.18-.64.4 1.63 1.66 1.51 1.73a22.21 22.21 0 0 1 -11.81-.47c-6.47-1.98-7.21-4.11-7.21-4.11z" fill="#e6e4da"/> <path d="m39.62 20a43.75 43.75 0 0 1 4.38 3.58 1.4 1.4 0 0 1 -.16.62s-4.41-3.2-4.44-3.36a1.72 1.72 0 0 1 .22-.84z" fill="#1d1d1b"/> <path d="m40.14 18.59s.37-.62.53-.65a19.47 19.47 0 0 1 3.11 2.62c0 .25.06.71 0 .65s-3.61-2.62-3.64-2.62z" fill="#1d1d1b"/> <path d="m40.88 15.54a7.38 7.38 0 0 1 1.91 1.14c.1.25.19.59.07.62a9.84 9.84 0 0 1 -2.1-1.11 1.63 1.63 0 0 1 .12-.65z" fill="#1d1d1b"/> <path d="m20.85 17.05a8.75 8.75 0 0 1 2-3.3c1.48-1.51 2.87-2.19 3.11-2.06s.37.49.22.55a8.49 8.49 0 0 0 -2.83 2.56c-1 1.54-1.15 2.77-1.36 2.8a3.36 3.36 0 0 1 -1.14-.55z" fill="#1d1d1b"/> <path d="m26.33 16.25c.3-.08.62.34.56.89a14.13 14.13 0 0 0 .31 5.7c.77 2.87.74 4.78.4 5a10.91 10.91 0 0 1 -4.29-.4c-1.75-.5-2.31-1.05-2.25-2.16a14.07 14.07 0 0 1 2.07-5.52 12.42 12.42 0 0 1 3.2-3.51z" fill="#1d1d1b"/> <path d="m25.38 18.87c.15 0 .09 2.34.55 4.28s.71 3.27.44 3.45a11.83 11.83 0 0 1 -3.21-.43c-.68-.15-1-.31-1-.77a17.74 17.74 0 0 1 1.08-3.82c.6-1.2 1.76-2.68 2.14-2.71z" fill="#ffffff"/> <g fill="#1d1d1b"> <path d="m7.23 26.54a5.56 5.56 0 0 1 .09-3.48 5.84 5.84 0 0 1 3.51-3c.34 0 .56.46.43.56s-2.49 1-2.8 2.52.52 3.46.4 3.67-1.48-.11-1.63-.27z"/> <path d="m52.44 21.73a34 34 0 0 1 3.64 2.47.39.39 0 0 1 -.25.43 22 22 0 0 1 -3.57-2 2.59 2.59 0 0 1 .18-.9z"/> <path d="m51.61 24.51a37.27 37.27 0 0 1 4.53 3.6c0 .25-.09.47-.25.47s-4.47-2.93-4.56-3.09a1.89 1.89 0 0 1 .28-.98z"/> <path d="m50.62 27.1a35.09 35.09 0 0 1 5.12 3.33c0 .18-.25.61-.34.55s-5.49-2.74-5.4-2.93a5.24 5.24 0 0 1 .62-.95z"/> <path d="m48.65 29.29c.18 0 5.05 2.52 5 2.74s-.18.49-.37.43-5.28-2.34-5.15-2.46.37-.68.52-.71z"/> <path d="m47.08 31.66a37.29 37.29 0 0 1 3.92 2.4c-.15.13-.21.22-.4.25a30.61 30.61 0 0 1 -4-1.94 1.66 1.66 0 0 1 .48-.71z"/> <path d="m45.29 33.82a19 19 0 0 1 3.42 2.06c-.15.09-.37.28-.52.28a26.61 26.61 0 0 1 -3.49-1.82 2.07 2.07 0 0 1 .59-.52z"/> <path d="m42.73 35.45a19.51 19.51 0 0 1 2.5 1.6s-.37.28-.49.25a22.67 22.67 0 0 1 -2.44-1.42c0-.09.28-.37.43-.43z"/> </g> <path d="m8.67 34.4c.14-.14 4.81 3.48 9.62 5.27s8.14 2.07 14.71 2.33a37.09 37.09 0 0 0 16.4-3.21c4-1.79 6.29-3.42 6.47-3.21s-2.28 3.12-6 4.84-8.38 4.19-16.18 4.23-13.33-1.16-17.69-3.71-7.6-6.26-7.33-6.54z" fill="#c8db89"/> <path d="m16.19 42.57a10 10 0 0 1 2.81 1.63c-.09.1-5.76 7.09-6 7.12s-.65 0-.65-.12 3.65-8.48 3.84-8.63z" fill="#fab900"/> <path d="m11.05 52.16c.82-.08 2.65.67 2.59 2s-2.16 1.51-3.12 1.08-1.14-2.93.53-3.08z" fill="#fab900"/> <path d="m32.16 46.64a16.39 16.39 0 0 1 1.76.06 22 22 0 0 1 -.37 2.62c-.1 0-.77 0-.8-.06s-.59-2.62-.59-2.62z" fill="#fab900"/> <path d="m31.91 50.43a1.9 1.9 0 0 1 2.62 1.11c.56 1.48-1.75 2-2.59 1.42s-1.01-2.19-.03-2.53z" fill="#fab900"/> <path d="m47.57 43.77a13.75 13.75 0 0 1 2.74-1.14c0 .09 2.32 6.66 2.13 6.72s-.12.34-.34 0-4.56-5.49-4.53-5.58z" fill="#fab900"/> <path d="m53 51.23a2.8 2.8 0 0 1 2.77 1.42 1.56 1.56 0 0 1 -2.31 1.88c-1.54-.86-1.27-3.08-.46-3.3z" fill="#fab900"/> </g>
</svg>